<svg id="Layer_1" data-name="Layer 1" xmlns="http://www.w3.org/2000/svg" xmlns:xlink="http://www.w3.org/1999/xlink" viewBox="0 0 139 145.8"><defs><style>.cls-1{fill:none;}.cls-2{clip-path:url(#clip-path);}.cls-3{fill:#03dac5;}</style><clipPath id="clip-path" transform="translate(-1 -2.19)"><rect class="cls-1" x="1" y="2.2" width="139" height="145.8"/></clipPath></defs><title>logo_dark</title><g class="cls-2"><g id="logo"><path id="Path_1" data-name="Path 1" class="cls-3" d="M25.11,10.63a67,67,0,0,1,23.2-7.51A92.44,92.44,0,0,1,73,2.93,89.33,89.33,0,0,1,96.83,9.26c7.52,3.24,14.64,7.62,20.1,13.46a147.39,147.39,0,0,0-22.19-7.95A167.53,167.53,0,0,0,72,10.31a176.51,176.51,0,0,0-23.2-1.38,189.81,189.81,0,0,0-23.7,1.7" transform="translate(-1 -2.19)"/><path id="Path_2" data-name="Path 2" class="cls-3" d="M15,29A64.73,64.73,0,0,1,40.6,16.23a78.31,78.31,0,0,1,29.33-1.61,82.32,82.32,0,0,1,27.8,8.87,71.31,71.31,0,0,1,22,17.83A149.21,149.21,0,0,0,95.09,28.77,113.64,113.64,0,0,0,68.87,22,103,103,0,0,0,41.81,22,116.38,116.38,0,0,0,15,29" transform="translate(-1 -2.19)"/><path id="Path_3" data-name="Path 3" class="cls-3" d="M121.81,46.86a28.06,28.06,0,0,1,14,9.83A21.32,21.32,0,0,1,139.6,65l.24,1.13.13,1.29a16.84,16.84,0,0,1,0,2.46,26.16,26.16,0,0,1-.85,4.49c-1.66,5.63-4.45,10.34-7.28,14.88l-4.33,6.64c-.71,1.1-1.38,2.2-2,3.33a13,13,0,0,0-.79,1.75,6.76,6.76,0,0,0-.44,1.93,7.77,7.77,0,0,1-.87-4.15,22.78,22.78,0,0,1,.54-4.19,61.17,61.17,0,0,1,2.36-7.82c1.82-5,4-9.79,5.32-14.34a22.87,22.87,0,0,0,.72-3.26,12.31,12.31,0,0,0,.13-1.49v-.68c0-.27-.06-.55-.09-.82a21.5,21.5,0,0,0-1.8-6.53c-1.91-4.35-5.17-8.45-8.75-12.72" transform="translate(-1 -2.19)"/><path id="Path_4" data-name="Path 4" class="cls-3" d="M10,106.05a89.18,89.18,0,0,1,5.17-8.53c1.87-2.77,3.88-5.44,6-8.06s4.31-5.16,6.7-7.61c1.18-1.24,2.5-2.45,3.72-3.55S34,76,35.31,74.92c2.53-2.22,5.1-4.42,7.82-6.53a63.71,63.71,0,0,1,8.8-5.94c.81-.44,1.69-.84,2.55-1.24a24.88,24.88,0,0,1,2.78-1,18.57,18.57,0,0,1,6.32-.89,14.77,14.77,0,0,1,6.58,1.86,18.34,18.34,0,0,1,4.84,4L74.77,65c.13.13.26.27.38.41l.21.28c.13.16.25.33.35.48a10.19,10.19,0,0,1,.52.91,12.12,12.12,0,0,1,.67,1.73A14.54,14.54,0,0,1,77.46,72,21.75,21.75,0,0,1,77,77.94a33.1,33.1,0,0,1-1.59,5.34c-.34.86-.66,1.72-1.09,2.57a24.71,24.71,0,0,1-1.3,2.5,29.83,29.83,0,0,1-7.51,8.58c-1.45,1.16-3,2.17-4.26,3.11l-.93.68c-.27.23-.52.4-.82.69-.59.52-1.16,1.07-1.72,1.64A64.85,64.85,0,0,0,46.55,119a114.42,114.42,0,0,0-7.37,18.58,75.44,75.44,0,0,1,1.19-10.06A67.86,67.86,0,0,1,43,117.56,58.51,58.51,0,0,1,53.12,99.17q.87-1,1.83-2c.29-.33.71-.7,1.06-1s.73-.65,1.08-.93C58.51,94,59.8,93,61,92a24.37,24.37,0,0,0,5.52-7,30.53,30.53,0,0,0,1.78-4.11c.27-.7.45-1.45.68-2.17s.37-1.44.48-2.15a14.89,14.89,0,0,0,.32-4,8.72,8.72,0,0,0-.29-1.67,5.53,5.53,0,0,0-.24-.61c0-.08-.08-.16-.11-.2l0,0s0,0,0,0l.16.17L69,70a11.06,11.06,0,0,0-2.79-2.4,7.2,7.2,0,0,0-3.1-.92c-2.27-.17-5.07.7-7.77,2a68,68,0,0,0-8.14,4.93c-2.68,1.85-5.37,3.79-8,5.78s-5.41,4-7.87,6-5,4.28-7.39,6.53q-7.26,6.75-14,14.19" transform="translate(-1 -2.19)"/><path id="Path_5" data-name="Path 5" class="cls-3" d="M57,79.45a43.25,43.25,0,0,1-3.7,6.17c-.65.94-1.35,1.81-2.06,2.68a13.8,13.8,0,0,1-2.43,2.4c-.93.72-2,1.35-3.06,2A15.08,15.08,0,0,0,42.88,95a14.87,14.87,0,0,0-3.28,6.2c-.33,1.16-.65,2.31-1,3.42a34.68,34.68,0,0,1-1.36,3.21,45.82,45.82,0,0,1-3,6.22,45.92,45.92,0,0,1-4.26,5.65,31,31,0,0,1-2.6,2.65,22.27,22.27,0,0,1-3.05,2.43.45.45,0,0,1-.62-.11.35.35,0,0,1-.08-.22,21.11,21.11,0,0,1,.19-3.81,31.29,31.29,0,0,1,.66-3.58,33.87,33.87,0,0,1,2.43-6.76,34.93,34.93,0,0,1,4-6,35.12,35.12,0,0,1,2.36-2.79A37.34,37.34,0,0,1,36,99a20.25,20.25,0,0,0,4.82-5.41c1.23-2,1.71-4.65,2.92-6.83a11.1,11.1,0,0,1,2.31-2.89A20.49,20.49,0,0,1,49,81.48a17.7,17.7,0,0,1,3.48-1.81,12,12,0,0,1,4-.86.44.44,0,0,1,.46.43.31.31,0,0,1,0,.19Z" transform="translate(-1 -2.19)"/><path id="Path_6" data-name="Path 6" class="cls-3" d="M3.7,57.85a17.49,17.49,0,0,0,6.66-2.67A18.57,18.57,0,0,0,13.12,53c.42-.39.79-.82,1.18-1.25l1.22-1.36a53.91,53.91,0,0,1,11.33-9.59,80.37,80.37,0,0,1,13.56-6.49c4.65-1.8,9.39-3.25,14.1-4.7l1.77-.54c.65-.18,1.3-.36,1.95-.52,1.31-.3,2.64-.54,4-.71a44.23,44.23,0,0,1,8-.23,57.79,57.79,0,0,1,15.34,3.12,50.74,50.74,0,0,1,13.88,7.33,54.46,54.46,0,0,1,5.88,5.06,66.66,66.66,0,0,1,5.07,5.69,43.44,43.44,0,0,1,7.54,13.5,40.2,40.2,0,0,1,2,15.24,39.24,39.24,0,0,1-1.26,7.62,33.46,33.46,0,0,1-2.85,7.28,57.12,57.12,0,0,1-4,6.37l-2.14,2.93-.54.72c-.18.25-.42.53-.63.79a17.93,17.93,0,0,1-1.34,1.55c-3.76,4-8.42,6.49-12.84,8.62a58.09,58.09,0,0,0-6.15,3.23A8.3,8.3,0,0,0,86,118.75c-.69.89-1.35,1.82-2,2.77a42.5,42.5,0,0,0-5.47,12.59A53.75,53.75,0,0,0,77.14,141c-.38,2.32-.53,4.67-.72,7a57.74,57.74,0,0,1,0-14.27,42.6,42.6,0,0,1,4.25-14q.87-1.66,1.89-3.24a13,13,0,0,1,1.2-1.64,5.49,5.49,0,0,1,.78-.82c.26-.24.54-.51.8-.72a60.06,60.06,0,0,1,6.43-4.13c4.14-2.43,8-4.89,10.71-8.14a12.49,12.49,0,0,0,.94-1.23c.15-.22.29-.4.45-.64l.49-.75,1.91-3a57.24,57.24,0,0,0,3.35-5.84,31.77,31.77,0,0,0,2.92-12.38,34.3,34.3,0,0,0-1.93-12.62,36.56,36.56,0,0,0-6.41-11.25,60,60,0,0,0-4.47-5.09,50.56,50.56,0,0,0-5-4.42A44.76,44.76,0,0,0,83,37.36a53.6,53.6,0,0,0-13.32-3.19,39,39,0,0,0-6.75-.11,33.4,33.4,0,0,0-3.32.39l-1.62.32-1.78.43q-7.11,1.69-14.06,3.72a78.22,78.22,0,0,0-13.33,5A55,55,0,0,0,17,51.86L15.68,53c-.48.4-1,.83-1.48,1.19a18.72,18.72,0,0,1-3.26,1.92,20.18,20.18,0,0,1-3.55,1.24,13.11,13.11,0,0,1-3.69.46" transform="translate(-1 -2.19)"/><path id="Path_7" data-name="Path 7" class="cls-3" d="M1,82.48c1.12-.1,2.24-.11,3.34-.2a18.29,18.29,0,0,0,3.22-.5,13.91,13.91,0,0,0,5.53-2.85,27.83,27.83,0,0,0,4.25-4.56c1.34-1.74,2.75-3.45,4.22-5.11A77.3,77.3,0,0,1,42.67,52.43a69.46,69.46,0,0,1,6.29-3c2.13-.89,4.43-1.63,6.58-2.29A48.27,48.27,0,0,1,69.7,44.84a33.65,33.65,0,0,1,14.55,3.32,31.72,31.72,0,0,1,11.48,9.33A28.2,28.2,0,0,1,99.34,64,30.3,30.3,0,0,1,101,71.11a25.07,25.07,0,0,1-2.53,14.47A15.22,15.22,0,0,1,96.07,89a34.68,34.68,0,0,1-2.66,2.48c-1.73,1.49-3.42,2.84-5.1,4.23L78.25,104c-1.67,1.4-3.34,2.81-4.93,4.22l-1.14,1c-.37.35-.66.64-1,1-.72.78-1.42,1.53-2.08,2.32a42.41,42.41,0,0,0-6.52,10.45,43.54,43.54,0,0,0-3,24.61A40.29,40.29,0,0,1,59,121.84a44.92,44.92,0,0,1,6-12.09c.65-.93,1.33-1.86,2-2.72.34-.43.78-.94,1.17-1.36l1.2-1.25c1.58-1.59,3.15-3.11,4.73-4.64,3.15-3,6.35-6.06,9.63-9l4.82-4.36c.77-.71,1.49-1.41,2.06-2.05a7.68,7.68,0,0,0,1.27-1.93,18.55,18.55,0,0,0,1.51-10.51,23.86,23.86,0,0,0-1.32-5.39,21.19,21.19,0,0,0-2.66-4.73,24.27,24.27,0,0,0-8.67-7.13,26.43,26.43,0,0,0-11.17-2.8,43.74,43.74,0,0,0-12.15,1.59,70.23,70.23,0,0,0-12,4.09,75.85,75.85,0,0,0-11.07,6.26,87.54,87.54,0,0,0-10.06,7.94c-1.6,1.42-3.16,2.91-4.67,4.45a27.11,27.11,0,0,1-5.29,4.37,15.61,15.61,0,0,1-6.58,2.29A31.36,31.36,0,0,1,1,82.48" transform="translate(-1 -2.19)"/></g></g></svg>